<?xml version="1.0" encoding="utf-8"?>
<!-- Generator: Adobe Illustrator 23.0.1, SVG Export Plug-In . SVG Version: 6.00 Build 0)  -->
<svg version="1.1" id="Layer_1" xmlns="http://www.w3.org/2000/svg" xmlns:xlink="http://www.w3.org/1999/xlink" x="0px" y="0px"
	 viewBox="0 0 255.9 317.3" style="enable-background:new 0 0 255.9 317.3;" xml:space="preserve">
<style type="text/css">
	.st0{fill:#6762A6;}
	.st1{fill:#FFFFFF;}
</style>
<g>
	<g>
		<path class="st0" d="M225.6,317.3H30.3C13.5,317.3,0,303.7,0,287V30.3C0,13.5,13.5,0,30.3,0h195.4c16.7,0,30.3,13.5,30.3,30.3V287
			C255.9,303.7,242.3,317.3,225.6,317.3L225.6,317.3L225.6,317.3z"/>
		<path class="st1" d="M160.4,273.6v-126c0,0,8.2-30.1-100.9,12.3c-0.2,0.5-0.2-116.5-0.2-116.5l35.7-0.2v75
			c0,0,99.8-39.3,99.8,29.8v125.6L160.4,273.6L160.4,273.6L160.4,273.6z M180.7,88.6h-37.8c13.6-16.6,25.9-45.2,25.9-45.2h39.1
			C207.9,43.4,201.2,62,180.7,88.6L180.7,88.6L180.7,88.6z M59.9,273.4v-71.7l35.9,35.9L59.9,273.4L59.9,273.4z"/>
	</g>
</g>
</svg>
