<svg xmlns="http://www.w3.org/2000/svg" xmlns:xlink="http://www.w3.org/1999/xlink" version="1.1" id="Capa_1" x="0px" y="0px" viewBox="0 0 502.756 502.756" style="enable-background:new 0 0 502.756 502.756;" xml:space="preserve">
<polygon points="244.243,358.805 224.591,434.534 282.95,374.872 275.018,371.726    "/>
			<path d="M275.959,317.091c-3.324,3.923-9.198,4.408-13.121,1.085c-3.923-3.324-4.408-9.198-1.085-13.121L485.171,41.551     L34.779,223.283L0,237.684l142.82,57.819l227.375-169.286c2.643-2.231,6.306-2.813,9.51-1.51     c3.204,1.303,5.422,4.275,5.759,7.717c0.337,3.443-1.263,6.788-4.154,8.687L155.099,309.606l43.399,151.599l30.245-116.792h0.223     c0.056-0.667,0.188-1.326,0.391-1.964c1.99-4.74,7.445-6.97,12.186-4.98l60.919,25.507l126.948,49.915     c2.528,1.119,5.434,0.984,7.848-0.363c2.517-1.412,4.236-3.912,4.655-6.768l30.534-204.027l30.31-152.148L275.959,317.091z"/>
</svg>
