<?xml version="1.0" encoding="utf-8"?>
<!-- Generator: Adobe Illustrator 24.1.2, SVG Export Plug-In . SVG Version: 6.00 Build 0)  -->
<svg version="1.1" id="Layer_1" xmlns="http://www.w3.org/2000/svg" xmlns:xlink="http://www.w3.org/1999/xlink" x="0px" y="0px"
	 viewBox="0 0 256 250" style="enable-background:new 0 0 256 250;" xml:space="preserve">
<style type="text/css">
	.st0{stroke:#000000;stroke-width:6;stroke-miterlimit:10;}
</style>
<g>
	<path class="st0" d="M246.9,143c0,19.2,0,38.4,0,57.6c-0.1,25-18.2,43.2-43.2,43.3c-12.7,0.1-25.4,0-38.1,0h-37.7
		c-24.8,0-49.6,0-74.4,0C27,243.9,9.1,226,9.1,199.5C9,172.3,9,145.1,9,117.8c0-22.5,0-45,0.1-67.5c0.1-26.2,18-44.2,44.2-44.2
		c24.2,0,48.4,0,72.6,0.1c2.3,0,4.9,0.5,6.9,1.5c3.3,1.8,4.1,5.1,3.3,8.7c-0.7,3.4-3,5.6-6.5,6.1c-1.8,0.3-3.6,0.3-5.4,0.3
		c-23.4,0-46.9,0-70.3,0c-17.7,0-28.1,10.5-28.1,28.3c0,24,0,48.1,0,72.1c0,25.1,0,50.2,0,75.2c0,18.3,10.4,28.8,28.6,28.8h147
		c18.5,0,28.9-10.4,28.9-29c0-22.8,0-45.7,0-68.5c0-1.5,0-3,0-4.5c0.3-5.2,3.3-8.4,8.1-8.5c4.9-0.1,8.4,3.2,8.5,8.6
		C247.1,131.2,246.9,137.1,246.9,143z"/>
	<path class="st0" d="M225.1,35c-25.5,25.6-50.2,55-75.7,80.6c-5.3,5.3-10.7,10.6-16.1,15.8c-3.1,3-6.8,2.4-10,0.5
		c-3.5-2.1-4.6-5.7-3-9.5c0.9-2.1,2.5-4.1,4.2-5.7C154.3,86.8,184.1,57,214,27.2c1.1-1.1,2.2-2.4,3.9-4.1c-2.2-0.1-3.7-0.2-5.1-0.2
		c-10.7,0-21.5,0-32.2-0.1c-6.4-0.1-10.1-3.4-9.9-8.7c0.2-5,3.8-8,10-8c18.7,0,37.5,0,56.2,0c7.1,0,9.9,2.8,10,9.8
		c0,18.9,0,37.8,0,56.7c0,6.1-3.2,9.7-8.3,9.7c-5.2,0-8.2-3.5-8.2-9.7c0-10.7-0.9-25.4-0.9-36.1c0-1.4,0.1-4.7,0-6.1L225.1,35z"/>
</g>
</svg>
