<?xml version="1.0" standalone="no"?>
<!DOCTYPE svg PUBLIC "-//W3C//DTD SVG 20010904//EN"
 "http://www.w3.org/TR/2001/REC-SVG-20010904/DTD/svg10.dtd">
<svg version="1.0" xmlns="http://www.w3.org/2000/svg"
 width="64.000000pt" height="64.000000pt" viewBox="0 0 64.000000 64.000000"
 preserveAspectRatio="xMidYMid meet">

<g transform="translate(0.000000,64.000000) scale(0.100000,-0.100000)"
fill="#000000" stroke="none">
<path d="M4 618 c3 -13 38 -157 78 -321 39 -163 76 -297 81 -297 16 0 478 453
470 460 -8 7 -611 180 -627 180 -4 0 -6 -10 -2 -22z m94 -21 c23 -6 42 -14 42
-17 0 -9 -79 -84 -84 -79 -2 2 -11 30 -19 62 -14 54 -14 58 1 52 9 -3 36 -11
60 -18z m77 -88 c8 -29 13 -55 11 -57 -2 -2 -30 4 -62 14 l-57 16 44 42 c24
23 45 41 47 40 2 -1 10 -26 17 -55z m71 45 c30 -8 54 -17 54 -18 0 -2 -20 -21
-45 -44 l-45 -40 -10 41 c-6 23 -13 50 -16 60 -6 21 -5 21 62 1z m160 -45 c24
-6 44 -14 43 -18 0 -3 -20 -23 -44 -44 l-42 -37 -16 61 c-14 54 -14 60 0 55 9
-4 35 -11 59 -17z m-78 -40 c7 -28 12 -54 12 -59 0 -7 -95 17 -109 27 -6 4 70
83 79 83 4 0 12 -23 18 -51z m155 -51 c8 -32 13 -58 10 -58 -3 0 -30 7 -60 16
l-55 16 43 44 c23 24 44 43 45 41 1 -1 9 -28 17 -59z m74 46 l56 -16 -44 -42
c-24 -22 -47 -39 -50 -36 -6 4 -29 89 -29 104 0 9 6 8 67 -10z m-430 -20 l55
-16 -43 -44 c-23 -24 -44 -43 -45 -41 -6 6 -31 117 -27 117 3 0 30 -7 60 -16z
m171 -101 c-23 -24 -45 -40 -49 -35 -5 6 -29 91 -29 105 0 2 27 -3 60 -12 l60
-16 -42 -42z m-83 6 c8 -29 13 -54 12 -56 -2 -1 -29 5 -61 14 l-57 16 42 43
c24 24 44 42 47 40 2 -2 10 -28 17 -57z m248 -3 l28 -11 -44 -43 -44 -43 -16
61 -15 61 31 -7 c18 -3 45 -11 60 -18z m-95 -37 c7 -29 10 -54 8 -56 -3 -3
-30 3 -61 12 l-56 16 43 39 c24 22 46 39 49 40 3 0 11 -23 17 -51z m-193 -26
l48 -16 -44 -38 c-24 -20 -45 -36 -47 -34 -2 2 -9 26 -17 54 -15 59 -14 60 60
34z m89 -141 c-1 -2 -28 4 -60 13 l-57 16 44 45 44 44 15 -57 c9 -32 15 -60
14 -61z m59 100 l58 -18 -46 -42 c-26 -23 -48 -42 -49 -42 -2 0 -6 17 -10 38
-3 20 -9 47 -12 60 -4 12 -5 22 -3 22 2 0 30 -8 62 -18z m-95 -116 l32 -11
-44 -44 -45 -44 -11 44 c-6 24 -14 52 -16 62 -6 19 10 18 84 -7z"/>
</g>
</svg>
